# xmcd CD database file
# Copyright (C) 1993-1998 Ti Kan
#
# Track frame offsets:
#	182
#	11312
#	18452
#	31102
#	39487
#	45815
#	58030
#	66030
#	73320
#	88252
#	96720
#	105852
#	123777
#	135665
#	150550
#	160985
#	173512
#	185335
#	197085
#	206810
#	215610
#	224527
#	237672
#	251507
#	264542
#	271917
#	279270
#
# Disc length: 3827 seconds
#
# Revision: 0
# Processed by: cddbd v1.4b41PL1 Copyright (c) Steve Scherf et al.
# Submitted via: CDmax 1.5
#
DISCID=800ef11b
DTITLE=reggrew - sgfdtrhg
DYEAR=1900
DGENRE=
TTITLE0=wqref
TTITLE1=edgfs
TTITLE2=dsgf
TTITLE3=gfds
TTITLE4=gfd
TTITLE5=gfd
TTITLE6=gfds
TTITLE7=gfd
TTITLE8=gfd
TTITLE9=gfds
TTITLE10=fdg
TTITLE11=gfds
TTITLE12=gfd
TTITLE13=gfd
TTITLE14=gfds
TTITLE15=gfd
TTITLE16=gfds
TTITLE17=gfd
TTITLE18=gfd
TTITLE19=gfd
TTITLE20=gfd
TTITLE21=gfd
TTITLE22=gfd
TTITLE23=gfd
TTITLE24=gfd
TTITLE25=dgfs
TTITLE26=gfds
EXTD=
EXTT0=
EXTT1=
EXTT2=
EXTT3=
EXTT4=
EXTT5=
EXTT6=
EXTT7=
EXTT8=
EXTT9=
EXTT10=
EXTT11=
EXTT12=
EXTT13=
EXTT14=
EXTT15=
EXTT16=
EXTT17=
EXTT18=
EXTT19=
EXTT20=
EXTT21=
EXTT22=
EXTT23=
EXTT24=
EXTT25=
EXTT26=
PLAYORDER=
